<svg width="26" height="26" viewBox="0 0 26 26" fill="none" xmlns="http://www.w3.org/2000/svg">
<path d="M22.3649 14.6542L21.9375 14.4073C21.4289 14.1139 21.125 13.5874 21.125 13C21.125 12.4126 21.4289 11.8861 21.9375 11.5927L22.3649 11.3457C23.5316 10.6714 23.9306 9.18288 23.257 8.01613L22.4445 6.60887C21.7726 5.44456 20.2784 5.04481 19.1149 5.71675L18.6875 5.96294C18.1789 6.25706 17.5703 6.25706 17.0625 5.96294C16.5539 5.66881 16.25 5.14312 16.25 4.55569V4.0625C16.25 2.71862 15.1564 1.625 13.8125 1.625H12.1875C10.8436 1.625 9.75 2.71862 9.75 4.0625V4.5565C9.75 5.14394 9.44612 5.66963 8.9375 5.96375C8.42887 6.25706 7.82112 6.25788 7.3125 5.96375L6.88512 5.71675C5.72162 5.04481 4.22744 5.44456 3.55469 6.60887L2.74219 8.01613C2.06862 9.18288 2.46756 10.6722 3.63431 11.3457L4.0625 11.5927C4.57112 11.8861 4.875 12.4126 4.875 13C4.875 13.5874 4.57112 14.1139 4.0625 14.4073L3.63512 14.6542C2.46837 15.3278 2.06944 16.8171 2.743 17.9839L3.5555 19.3911C4.22825 20.5554 5.72244 20.9552 6.88512 20.2833L7.3125 20.0371C7.82112 19.7421 8.42887 19.7437 8.9375 20.0371C9.44612 20.3312 9.75 20.8569 9.75 21.4443V21.9375C9.75 23.2814 10.8436 24.375 12.1875 24.375H13.8125C15.1564 24.375 16.25 23.2814 16.25 21.9375V21.4435C16.25 20.8561 16.5539 20.3304 17.0625 20.0362C17.5703 19.7429 18.1789 19.7421 18.6875 20.0362L19.1149 20.2833C20.2784 20.9544 21.7726 20.5546 22.4445 19.3911L23.257 17.9839C23.9306 16.8171 23.5316 15.3278 22.3649 14.6542ZM13 17.0625C10.7599 17.0625 8.9375 15.2401 8.9375 13C8.9375 10.7599 10.7599 8.9375 13 8.9375C15.2401 8.9375 17.0625 10.7599 17.0625 13C17.0625 15.2401 15.2401 17.0625 13 17.0625Z" fill="black"/>
</svg>
